<?xml version="1.0" encoding="utf-8"?>
<!-- Generator: Adobe Illustrator 24.0.0, SVG Export Plug-In . SVG Version: 6.00 Build 0)  -->
<svg version="1.1" id="Camada_1" xmlns="http://www.w3.org/2000/svg" xmlns:xlink="http://www.w3.org/1999/xlink" x="0px" y="0px"
	 viewBox="0 0 1366 1366" style="enable-background:new 0 0 1366 1366;" xml:space="preserve">
<style type="text/css">
	.st0{fill:#373741;}
	.st1{font-family:'TrashHand';}
	.st2{font-size:94.5898px;}
	.st3{fill:#A6C6C1;}
	.st4{fill:#263041;}
	.st5{fill:#EDE1CE;}
	.st6{fill:#FF7800;}
	.st7{fill:#E0ABA6;stroke:#CC2233;stroke-miterlimit:10;}
	.st8{fill:#314973;}
	.st9{clip-path:url(#SVGID_2_);}
	.st10{fill:#438EF9;stroke:#314973;stroke-linecap:round;stroke-linejoin:round;stroke-miterlimit:10;}
	.st11{clip-path:url(#SVGID_2_);fill:none;stroke:#263041;stroke-width:2;stroke-miterlimit:10;}
</style>
<text transform="matrix(1 0 0 1 427.002 1321.6465)" class="st0 st1 st2">@ombudsmanviktor</text>
<g>
	<path class="st3" d="M1223.8,800.6c-15.9,38.8-10.4,77.4,3.2,116c24.5,69.3,72.6,146,24.4,216.3c-47.8,69.7-148.4,89-234.7,82
		c-109.4-8.8-217.1-52.3-328.3-36.8c-53.7,7.5-98.6,33.7-148.9,49.9c-41.5,13.5-91.9,18.8-131.1-3.1
		c-62.1-34.7-61.9-109.2-88.1-162.9c-7.1-14.5-16.5-28.6-29.5-39.8c-13.9-12.2-31.3-20.7-48.9-28.4c-33.8-14.7-71.4-27-94.5-54.3
		c-28.6-34-21.7-79-7.6-116.5c16.1-42.8,46.3-86.5,37.6-133.1c-12.5-67.1-93.3-105.3-109.7-171.2C48.4,440.2,135.4,389.5,204,358.4
		c37.9-17.1,77.8-34.3,107.3-61.9c27.9-26.1,36.4-58.2,40.5-92.2c0.5-15.6,1.8-31.1,4.8-46c3.2-23.4,9.3-46.6,25.2-65.8
		c24.9-30,65.6-40.9,106.6-40.7c4.7,0,9.4,0.2,14,0.5c6.3,0,12.6,0.3,18.9,0.8c52.9,4.1,103.2,22.2,156.3,24
		c99.9,3.4,191.3-46.2,291.6-39.6c38.9,2.5,78.3,12.4,108.2,35.1c28.9,22,43,53.6,45.2,86.5c2.4,35.3-6.7,70.5-13.7,105
		c-6.8,33.7-13.4,69.4-3.5,103.1c19.1,65,98,90.7,153.7,127.6c27.6,18.4,52.2,40.9,62.5,70.5c14.1,40.9-2.5,84.1-24.6,120.4
		C1273.7,724.5,1240.7,759,1223.8,800.6z"/>
	<path class="st3" d="M125,324.1c-15,0-15,20.3,0,20.3C140,344.4,140,324.1,125,324.1z"/>
	<path class="st3" d="M239.5,292.1c-15,0-15,20.3,0,20.3C254.5,312.4,254.5,292.1,239.5,292.1z"/>
	<path class="st3" d="M174.7,241.3c-15,0-15,20.3,0,20.3C189.7,261.6,189.7,241.3,174.7,241.3z"/>
	<path class="st3" d="M1138.2,105.8c-15,0-15,20.3,0,20.3C1153.2,126.1,1153.2,105.8,1138.2,105.8z"/>
	<path class="st3" d="M1164.1,224.3c-15,0-15,20.3,0,20.3C1179.1,244.6,1179.2,224.3,1164.1,224.3z"/>
	<path class="st3" d="M1216,139.6c-15,0-15,20.3,0,20.3C1231,159.9,1231,139.6,1216,139.6z"/>
	<path class="st3" d="M274,1244.5c-15,0-15,20.3,0,20.3C289,1264.8,289.1,1244.5,274,1244.5z"/>
	<path class="st3" d="M287,1321.7c-15,0-15,20.3,0,20.3C302,1342,302,1321.7,287,1321.7z"/>
	<path class="st3" d="M198.4,1280.3c-15,0-15,20.3,0,20.3C213.4,1300.6,213.4,1280.3,198.4,1280.3z"/>
	<path class="st3" d="M1265.7,832.3c-15,0-15,20.3,0,20.3C1280.7,852.6,1280.7,832.3,1265.7,832.3z"/>
	<path class="st3" d="M1248.4,433.3c-15,0-15,20.3,0,20.3C1263.4,453.6,1263.4,433.3,1248.4,433.3z"/>
	<path class="st3" d="M1200.9,359.9c-15,0-15,20.3,0,20.3C1215.9,380.2,1215.9,359.9,1200.9,359.9z"/>
	<path class="st3" d="M1295.9,775.8c-15,0-15,20.3,0,20.3C1310.9,796.1,1311,775.8,1295.9,775.8z"/>
	<path class="st3" d="M131.4,698.7c-15,0-15,20.3,0,20.3C146.4,719,146.5,698.7,131.4,698.7z"/>
	<path class="st3" d="M245.9,188.6c-15,0-15,20.3,0,20.3C261,208.9,261,188.6,245.9,188.6z"/>
	<path class="st3" d="M200.6,152.8c-15,0-15,20.3,0,20.3C215.6,173.1,215.6,152.8,200.6,152.8z"/>
	<path class="st3" d="M1265.8,1176.5c-15,0-15,20.3,0,20.3C1280.8,1196.8,1280.8,1176.5,1265.8,1176.5z"/>
	<path class="st3" d="M1276.6,370.3c-15,0-15,20.3,0,20.3C1291.6,390.6,1291.6,370.3,1276.6,370.3z"/>
	<path class="st3" d="M275.6,1055.3c-15,0-15,20.3,0,20.3C290.6,1075.6,290.6,1055.3,275.6,1055.3z"/>
	<path class="st3" d="M64.6,870.3c-15,0-15,20.3,0,20.3C79.6,890.6,79.6,870.3,64.6,870.3z"/>
	<path class="st3" d="M1307.6,1140.3c-15,0-15,20.3,0,20.3C1322.6,1160.6,1322.6,1140.3,1307.6,1140.3z"/>
	<path class="st3" d="M1319,822.1c-15,0-15,20.3,0,20.3C1334,842.4,1334,822.1,1319,822.1z"/>
</g>
<g>
	<g>
		<path class="st4" d="M687.4,725.3c-8.4-24.8-18.5-49.1-30.7-72.3c-4.7-15.3-5.3-31.5-0.5-47.5c8-28.4,5.8-56.8,0.9-77.3
			c-2.5-10.2-5.4-18.7-7.7-24.6c-2.4-5.7-4.1-8.9-4.1-8.9c-8.4,33-9.2,63.2-6.2,89.1c2.6,26.2,9.2,48.4,15.8,65.6
			c-4.9-10.2-11-19.7-16.5-29.5c-6.1-9.5-11.9-19.1-18.4-28.3c-3.6-7.1-5.8-14.8-6.8-22.8c-1.2-7.8-1.2-16,0-24.1
			c4.5-29.4-1.7-57-9.1-76.9C596.4,448.2,588,436,588,436c-7.7,67.8,12,119.8,29.6,152.3c-9-13-18.9-25.5-28.9-37.7
			c-11.4-16.3-14.5-27.2-29.7-45.3c-7.8-8.8-18.6-19.4-35.9-31.9c-17.4-12.2-41-26.9-74.7-40.5c28.3,22.7,47.3,41.4,62.5,55.3
			c14.9,14.1,25.5,24,34.4,31.1c17.4,14.7,27.8,18.6,42.2,32.4c6.2,7.3,12,15,18,22.6C592.8,561,574,546.9,550,540.1
			c-23.6-7.3-52-7.1-81,5.1c0,0,2.5,1.1,7.2,2.5c4.7,1.4,11.5,3.3,19.8,5.3c8.5,1.9,18.8,3.7,30.2,5.3c11.7,1.3,24.7,2.3,39,2.3
			c16-0.4,31.1,5.8,42.7,16.8c13.1,18.2,25.9,36.8,36.7,56.5c-5.3-7.4-12.1-15.3-20.7-22.4c-8.3-7.3-18.4-13.7-29.7-18.7
			c-11.1-5.2-24.2-8.3-37.5-9.8c-13.8-1.1-28.4,0.1-43.5,4.1c0,0,9.3,5.6,25.7,11.4c16.2,6.1,39.3,13.1,67.6,16.6
			c7.8,1,15.3,3.4,22.3,7.1c6.8,3.8,12.8,9,17.8,15.2c12,22,23.1,44.6,31.9,68.1c-9.2-19.2-27-40.8-51.6-56
			c-24.7-15.2-57.2-23-93.6-16.7c0,0,2.5,1.9,7.3,4.7c4.8,2.9,12,6.6,20.7,11.2c18.2,8.6,43.2,19.9,75.7,27.9
			c17.9,4.6,34,16.2,43.1,32.9c7.2,18.7,12.9,37.9,18.1,57.3l1.5-0.4c-3.6-12.3-6.5-24.9-10.9-37c-1.6-9.4-1.7-18.9-0.6-28.3
			c1.2-9.4,4.1-18.9,7.7-27.8c14.1-32,15.1-65.5,12.1-90.4c-1.3-12.6-4.1-22.7-6-29.9c-1.9-7.2-3.6-11.2-3.6-11.2
			C670.9,618.2,678.4,683.1,687.4,725.3z"/>
	</g>
	<g>
		<g>
			<path class="st5" d="M960.8,805.6c-1.2,0-2.4,0.1-3.7,0.2c-5.6,17.5-24.3,76.7-24.3,76.7l0.1-69.4l0.1-56c0-8-0.5-15.8-1.4-23.6
				c-1,5.4-93.5,9.8-207.5,9.8c-113.9,0-206.3-4.4-207.5-9.8c-0.8,7.5-1.3,15.2-1.4,22.9l-0.1,56h0l-0.1,69.4
				c0,0-18.6-59.2-24.1-76.7c-1.2-0.1-2.4-0.2-3.7-0.2c-35.5-0.1-64.3,33.7-64.4,75.4c-0.1,41.7,28.6,75.5,64.1,75.6
				c13.7,0,26.4-5,36.8-13.6c25.8,85.9,105.4,148.6,199.7,148.8c94.3,0.2,174.1-62.3,200.2-148.1c10.4,8.6,23.1,13.7,36.7,13.7
				c35.5,0.1,64.3-33.7,64.4-75.4C1025,839.5,996.3,805.7,960.8,805.6z"/>
		</g>
		<g>
			<g>
				<path class="st4" d="M674.7,852c0,5.2-17.3,9.4-38.6,9.4c-21.3,0-38.5-4.3-38.5-9.5s17.3-9.4,38.6-9.4
					C657.5,842.5,674.8,846.7,674.7,852z"/>
			</g>
			<g>
				<path class="st4" d="M582.6,820.1c-3.7,0-7.3-1.6-9.6-4.8c-4-5.3-3-12.9,2.2-16.9c1.9-1.5,47.7-35.7,108.2-8
					c6.1,2.8,8.8,10,6,16.1c-2.8,6.1-10,8.8-16.1,6c-46.9-21.5-81.9,4.1-83.4,5.3C587.7,819.3,585.1,820.1,582.6,820.1z"/>
			</g>
			<g>
				<path class="st6" d="M613.3,896.7c0,9.1-7.4,16.5-16.5,16.5c-9.1,0-16.5-7.4-16.5-16.5c0-9.1,7.4-16.5,16.5-16.5
					C605.9,880.2,613.3,887.6,613.3,896.7z"/>
			</g>
			<g>
				<path class="st4" d="M773.3,852.1c0,5.2,17.2,9.5,38.5,9.5c21.3,0,38.6-4.2,38.6-9.4c0-5.2-17.2-9.5-38.5-9.5
					C790.6,842.7,773.3,846.9,773.3,852.1z"/>
			</g>
			<g>
				<path class="st4" d="M865.6,820.5c3.7,0,7.3-1.6,9.6-4.7c4.1-5.3,3.1-12.8-2.2-16.9c-1.9-1.5-47.5-35.9-108.1-8.4
					c-6.1,2.8-8.8,10-6,16c2.8,6.1,10,8.8,16,6c47-21.3,81.9,4.4,83.3,5.5C860.4,819.7,863,820.5,865.6,820.5z"/>
			</g>
			<g>
				<path class="st6" d="M834.6,897.1c0,9.1,7.4,16.5,16.5,16.5c9.1,0,16.5-7.4,16.5-16.5c0-9.1-7.4-16.5-16.5-16.5
					C842,880.6,834.6,887.9,834.6,897.1z"/>
			</g>
			<path class="st4" d="M727.6,785.2l-0.1,48l18.6,111.2c1.7,10.1-6.1,19.4-16.4,19.4l-23.6,0l0,0c0,7.8,6.3,14.2,14.1,14.2l25.9,0
				c10.6,0,18.5-9.7,16.3-20.1l-25.8-121.6L727.6,785.2z"/>
		</g>
		<path class="st4" d="M931.7,733.3c0,5.5-92.8,9.9-207.2,9.9c-114.4,0-207.2-4.4-207.2-9.9c0-5.4,92.8-9.9,207.2-9.9
			C839,723.5,931.7,727.9,931.7,733.3z"/>
	</g>
	<g>
		<path class="st7" d="M703.2,430.5c14.6,26.7,19.2,52.4,10.3,57.3c-9,4.9-28.1-12.8-42.8-39.5c-14.6-26.7-19.2-52.4-10.3-57.3
			C669.4,386,688.5,403.7,703.2,430.5z"/>
		<path class="st7" d="M655.7,479.8c30-5.7,55.8-2.1,57.7,8c1.9,10.1-20.8,22.8-50.8,28.5c-30,5.7-55.8,2.1-57.7-8
			C603,498.3,625.8,485.5,655.7,479.8z"/>
		<path class="st7" d="M688,540.2c3.9-30.2,15.2-53.7,25.4-52.4c10.2,1.3,15.3,26.9,11.4,57.1c-3.9,30.2-15.2,53.7-25.4,52.4
			C689.3,596,684.2,570.5,688,540.2z"/>
		<path class="st7" d="M755.4,528.2c-27.6-13-46.4-31.1-42-40.4c4.4-9.3,30.3-6.2,57.8,6.8c27.6,13,46.4,31.1,42,40.4
			C808.9,544.2,783,541.2,755.4,528.2z"/>
		<path class="st7" d="M764.8,460.3c-20.9,22.2-43.9,34.5-51.4,27.5c-7.5-7,3.4-30.7,24.3-52.9c20.9-22.2,43.9-34.5,51.4-27.5
			C796.6,414.4,785.7,438.1,764.8,460.3z"/>
	</g>
	<g>
		<path class="st4" d="M766,723.8c-11.6,8.8-14,20.8-24.7-23c-28.9-115.3,62.8-219.8,180.6-208.1c22.8,2.1,19-6.9-4.1,53.2
			C875.4,650.4,857,654.5,766,723.8z"/>
		<g>
			<path class="st8" d="M893.9,599.2c3.2-6.3-36.1-7-65.3,5.5c-25.3,12.3-36.7,32.4-7.7-7.3c15.4-18.8,38.5-54.5,93.9-44.2
				c2.2-5.1-33.5-8.8-60.2,6.4c53.3-53.5,92.9-62.9,81.1-65.1c-116.9,67.6-82.5,99.5-61.3,0.5c-6.8,1.3,0.7-2.8-13.9,39
				c-10.6,28.3-20.5,35.5-41.9,61.6c-27.6,37.7-14.7,27-9-5.6c2-9,11.5-76.9,3.8-72.2c-1,104.7-26.6,117.1-45.3,164.7
				c6.1-38.6-3-120-8.8-110.8c7.1,34.5,12.7,89,3.3,123.3c-6.6,25-14.5,41.7-7.7,37c6.9-25.4,10.1-41.3,29.4-59.3
				c19.2-18.7,50.9-28.2,78-27.1c5.4-5.9-60.2-5.7-91.5,38.1C794,624.7,826.2,588.7,893.9,599.2z"/>
		</g>
	</g>
	<g>
		<path class="st4" d="M817.8,470.1c-3.5,3.7,1.3,21.9-6.4,32.1c-8.9,11.8-30.2,16.6-33.3,22.1c3.1-5.5-3.2-26.2,8.1-41.2
			C795.2,471.3,814.8,473.4,817.8,470.1z"/>
	</g>
	<g>
		<path class="st4" d="M889.6,679.1c-6.2,1.8-14.2,20.5-29.5,26.6c-18.4,7.4-41.6,1.9-48.9,6c6.9-3.9,15.6-26.7,37.2-35.4
			C865.7,669.5,884.1,680.7,889.6,679.1z"/>
	</g>
	<g>
		<path class="st4" d="M527.1,689.6c6.2-0.6,20.9-18.2,42.8-15c27.2,4.2,39.5,28.2,46.8,32c-8.5-4.5-33.2,2.1-51.5-0.7
			C549.3,703.5,534.5,688.9,527.1,689.6z"/>
	</g>
</g>
<g>
	<defs>
		<rect id="SVGID_1_" x="362.9" y="118" width="664.9" height="1182"/>
	</defs>
	<clipPath id="SVGID_2_">
		<use xlink:href="#SVGID_1_"  style="overflow:visible;"/>
	</clipPath>
	<g class="st9">
		<path class="st10" d="M718.3,325.8c0,14.3-11.6,26-26,26s-26-11.6-26-26s26-48.2,26-48.2S718.3,311.4,718.3,325.8z"/>
		<path class="st5" d="M696.3,341.6c-11.7,0-21.2-9.5-21.2-21.2l0,0c-4,4-5.5,10.2-3,15.3c3.7,7.7,11.6,13,20.7,13
			c11.4,0,20.7-8.3,22.6-19.1C711.9,336.6,704.7,341.6,696.3,341.6z"/>
	</g>
	<path class="st11" d="M350.6,139.8c26.9-48.2,126.9,4.1,111.4,97.1c-7.8,47.1-34.7,77.9-57.7,66.2c-24.1-12.3-4.3-106,82.4-146.3
		c128.9-59.9,209.6,28.1,209.6,113.6"/>
</g>
</svg>
